<svg width="71" height="24" viewBox="0 0 71 24" fill="none" xmlns="http://www.w3.org/2000/svg">
<g clip-path="url(#clip0_45_4289)">
<path d="M41.3989 12.1794C40.1196 11.1188 38.4636 10.4341 37.0031 9.8297C34.9892 8.99682 33.2492 8.27815 33.2492 6.94534C33.2492 6.36325 33.5215 5.82855 34.017 5.44283C34.5392 5.03554 35.2686 4.81174 36.0693 4.81174C38.5877 4.81174 40.5964 6.59268 40.6142 6.60875L41.1052 7.05674L43.337 2.87075L43.0817 2.60099C42.9844 2.49773 40.6338 0.0710449 36.0997 0.0710449C33.9241 0.0710449 31.9235 0.766433 30.4639 2.02878C28.9829 3.30982 28.1651 5.07836 28.1651 7.00749C28.1651 8.88842 28.8954 10.4096 30.3943 11.6568C31.6548 12.704 33.2251 13.3807 34.7445 14.0359C36.8165 14.9286 38.6082 15.7009 38.6082 17.0747C38.6082 18.121 37.8994 19.2396 35.9131 19.2396C33.0644 19.2396 30.7782 17.0703 30.7558 17.048L30.3273 16.6321L27.5527 20.477L27.8295 20.7869C27.8606 20.819 28.5776 21.6109 29.9247 22.3991C31.1603 23.1205 33.1921 23.9811 35.8497 23.9811C38.1753 23.9811 40.1571 23.2678 41.5819 21.9198C42.9219 20.6503 43.6593 18.897 43.6593 16.9821C43.6593 15.0119 42.9201 13.4408 41.3989 12.1794Z" fill="#fff"/>
<path d="M64.8543 23.6359H70.0535V0.416992H64.8543V23.6359Z" fill="#fff"/>
<path d="M54.6915 19.2873H50.7341V4.76364H54.2237C55.7878 4.76364 56.685 5.63849 56.685 7.16327C56.685 8.70411 55.8779 9.48437 54.2853 9.48437H53.0837V13.7578H54.6915C55.5708 13.7578 56.3038 14.0318 56.8099 14.5532C57.342 15.0996 57.558 15.6406 57.558 16.4199C57.558 18.1893 56.46 19.2873 54.6915 19.2873ZM61.595 13.2008C61.0807 12.392 60.3755 11.7492 59.5363 11.3189C60.8906 10.2333 61.6565 8.56659 61.6565 6.66335C61.6565 4.73863 60.9236 3.13352 59.5363 2.01851C58.2294 0.969553 56.4145 0.414307 54.2853 0.414307H45.8259V23.6331H54.38C56.6493 23.6331 58.6124 23.06 60.0559 21.9736C61.6949 20.7416 62.56 18.908 62.56 16.669C62.56 15.3933 62.227 14.1935 61.595 13.2008Z" fill="#fff"/>
<path d="M12.0036 0C5.3742 0 0 5.38667 0 12.0313C0 18.2607 4.72341 23.384 10.7752 24V15.2602C9.47449 14.7641 8.54784 13.5042 8.54784 12.0313C8.54784 10.1253 10.0976 8.57459 12.0036 8.57459C13.9087 8.57459 15.4602 10.1253 15.4602 12.0313C15.4602 13.5042 14.5318 14.7638 13.2311 15.2602V24C19.2837 23.384 24.0072 18.2607 24.0072 12.0313C24.0072 5.38667 18.6329 0 12.0036 0Z" fill="#00B5EF"/>
</g>
<defs>
<clipPath id="clip0_45_4289">
<rect width="70.0535" height="24" fill="white"/>
</clipPath>
</defs>
</svg>
